<svg width="18" height="12" viewBox="0 0 18 12" fill="none" xmlns="http://www.w3.org/2000/svg">
<path fill-rule="evenodd" clip-rule="evenodd" d="M0.99998 0C0.823169 0 0.653599 0.070238 0.528575 0.195262C0.403551 0.320287 0.333313 0.489856 0.333313 0.666667C0.333313 0.843478 0.403551 1.01305 0.528575 1.13807C0.653599 1.2631 0.823169 1.33333 0.99998 1.33333H17C17.1768 1.33333 17.3464 1.2631 17.4714 1.13807C17.5964 1.01305 17.6666 0.843478 17.6666 0.666667C17.6666 0.489856 17.5964 0.320287 17.4714 0.195262C17.3464 0.070238 17.1768 0 17 0H0.99998ZM0.333313 6C0.333313 5.82319 0.403551 5.65362 0.528575 5.5286C0.653599 5.40357 0.823169 5.33333 0.99998 5.33333H17C17.1768 5.33333 17.3464 5.40357 17.4714 5.5286C17.5964 5.65362 17.6666 5.82319 17.6666 6C17.6666 6.17681 17.5964 6.34638 17.4714 6.4714C17.3464 6.59643 17.1768 6.66667 17 6.66667H0.99998C0.823169 6.66667 0.653599 6.59643 0.528575 6.4714C0.403551 6.34638 0.333313 6.17681 0.333313 6V6ZM0.333313 11.3333C0.333313 11.1565 0.403551 10.987 0.528575 10.8619C0.653599 10.7369 0.823169 10.6667 0.99998 10.6667H17C17.1768 10.6667 17.3464 10.7369 17.4714 10.8619C17.5964 10.987 17.6666 11.1565 17.6666 11.3333C17.6666 11.5101 17.5964 11.6797 17.4714 11.8047C17.3464 11.9298 17.1768 12 17 12H0.99998C0.823169 12 0.653599 11.9298 0.528575 11.8047C0.403551 11.6797 0.333313 11.5101 0.333313 11.3333V11.3333Z" fill="#F8F8F8"/>
</svg>
