<svg width="16" height="16" viewBox="0 0 16 16" fill="none" xmlns="http://www.w3.org/2000/svg">
<path d="M1 0C0.734784 0 0.48043 0.105357 0.292893 0.292893C0.105357 0.48043 0 0.734784 0 1V3C0 3.26522 0.105357 3.51957 0.292893 3.70711C0.48043 3.89464 0.734784 4 1 4H6C6.26522 4 6.51957 3.89464 6.70711 3.70711C6.89464 3.51957 7 3.26522 7 3V1C7 0.734784 6.89464 0.48043 6.70711 0.292893C6.51957 0.105357 6.26522 0 6 0H1ZM1 6C0.734784 6 0.48043 6.10536 0.292893 6.29289C0.105357 6.48043 0 6.73478 0 7V9C0 9.26522 0.105357 9.51957 0.292893 9.70711C0.48043 9.89464 0.734784 10 1 10H6C6.26522 10 6.51957 9.89464 6.70711 9.70711C6.89464 9.51957 7 9.26522 7 9V7C7 6.73478 6.89464 6.48043 6.70711 6.29289C6.51957 6.10536 6.26522 6 6 6H1ZM1 12C0.734784 12 0.48043 12.1054 0.292893 12.2929C0.105357 12.4804 0 12.7348 0 13V15C0 15.2652 0.105357 15.5196 0.292893 15.7071C0.48043 15.8946 0.734784 16 1 16H6C6.26522 16 6.51957 15.8946 6.70711 15.7071C6.89464 15.5196 7 15.2652 7 15V13C7 12.7348 6.89464 12.4804 6.70711 12.2929C6.51957 12.1054 6.26522 12 6 12H1ZM10 0C9.73478 0 9.48043 0.105357 9.29289 0.292893C9.10536 0.48043 9 0.734784 9 1V3C9 3.26522 9.10536 3.51957 9.29289 3.70711C9.48043 3.89464 9.73478 4 10 4H15C15.2652 4 15.5196 3.89464 15.7071 3.70711C15.8946 3.51957 16 3.26522 16 3V1C16 0.734784 15.8946 0.48043 15.7071 0.292893C15.5196 0.105357 15.2652 0 15 0H10ZM10 6C9.73478 6 9.48043 6.10536 9.29289 6.29289C9.10536 6.48043 9 6.73478 9 7V9C9 9.26522 9.10536 9.51957 9.29289 9.70711C9.48043 9.89464 9.73478 10 10 10H15C15.2652 10 15.5196 9.89464 15.7071 9.70711C15.8946 9.51957 16 9.26522 16 9V7C16 6.73478 15.8946 6.48043 15.7071 6.29289C15.5196 6.10536 15.2652 6 15 6H10Z" fill="#DA9354"/>
</svg>
